<svg xmlns="http://www.w3.org/2000/svg" viewBox="0 0 128 128" role="img" aria-labelledby="title desc">
  <title id="title">JulineMart Icon</title>
  <desc id="desc">Shopping bag badge icon for the JulineMart PWA</desc>
  <defs>
    <linearGradient id="bagGradient" x1="0%" y1="0%" x2="100%" y2="100%">
      <stop offset="0%" stop-color="#7c3aed" />
      <stop offset="100%" stop-color="#5b21b6" />
    </linearGradient>
    <linearGradient id="handleGradient" x1="0%" y1="0%" x2="0%" y2="100%">
      <stop offset="0%" stop-color="#f3e8ff" />
      <stop offset="100%" stop-color="#c4b5fd" />
    </linearGradient>
    <filter id="shadow" x="-15%" y="-15%" width="130%" height="130%">
      <feDropShadow dx="0" dy="4" stdDeviation="6" flood-color="#000000" flood-opacity="0.12" />
    </filter>
  </defs>
  <rect width="112" height="112" x="8" y="8" rx="28" fill="#f8f5ff" />
  <g filter="url(#shadow)">
    <path d="M38 44a6 6 0 0 1 6-6h40a6 6 0 0 1 6 6l-4 44a10 10 0 0 1-9.9 9h-24.2A10 10 0 0 1 38 88z" fill="url(#bagGradient)" />
    <path d="M50 40a14 14 0 0 1 28 0v6h-6v-6a8 8 0 0 0-16 0v6h-6z" fill="url(#handleGradient)" />
    <circle cx="56" cy="58" r="3" fill="#fefefe" />
    <circle cx="72" cy="58" r="3" fill="#fefefe" />
    <path d="M48 72c4 6 10 9 16 9s12-3 16-9" fill="none" stroke="#fdf2f8" stroke-width="4" stroke-linecap="round" />
  </g>
</svg>
